# xmcd
#
# Track frame offsets:
#	150
#	15009
#	30509
#	47594
#	64551
#	86232
#	98856
#	118353
#	133887
#	148664
#	161895
#	175466
#	194931
#
# Disc length: 2852 seconds
#
# Revision: 1
# Processed by: cddbd v1.5.2PL0 Copyright (c) Steve Scherf et al.
# Submitted via: audiograbber 1.83.01
#
DISCID=bd0b220d
DTITLE=Amy Dalley - It's Time
DYEAR=2008
DGENRE=Country
TTITLE0=I Built This Wall
TTITLE1=Talk
TTITLE2=Friday Night With The Broken Hearted
TTITLE3=It's Time
TTITLE4=The Bitter End
TTITLE5=He Makes Me Wanna
TTITLE6=You Are Mine
TTITLE7=Let's Try Goodbye
TTITLE8=Love Me Back To Life
TTITLE9=That's All I Better Say About That
TTITLE10=Men Don't Change
TTITLE11=Safe
TTITLE12=I Think You Are Beatiful
EXTD=
EXTT0=
EXTT1=
EXTT2=
EXTT3=
EXTT4=
EXTT5=
EXTT6=
EXTT7=
EXTT8=
EXTT9=
EXTT10=
EXTT11=
EXTT12=
PLAYORDER=
